<svg width="2372" height="908" viewBox="0 0 2372 908" fill="none" xmlns="http://www.w3.org/2000/svg">
<path d="M894.5 101.031V101.06C831.973 100.561 794.824 76.6467 756.961 52.2735C717.182 26.6661 676.614 0.551741 605 0.551741C531.387 0.551741 485.637 28.1442 442.077 54.4159C402.496 78.2873 364.724 101.068 309.5 101.068C217.755 101.068 176.824 73.0221 138.192 46.5514C102.714 22.2419 69.1751 -0.738815 3.8147e-06 0.551741C0.000400543 46.5514 9.15527e-05 89.5 0.0001297 111C0.0001297 140 0.0001297 212.5 3.8147e-06 262.5L0 907.5H2372V55.5C2372 37.5 2372 11 2372 0C2321 0 2259 28.5 2229 52.5C2196.15 74.0314 2162.53 101.068 2087.5 101.068C2023.76 101.068 1986.23 76.9054 1947.96 52.2734C1908.18 26.6661 1867.61 0.551661 1796 0.551661C1722.39 0.551661 1676.64 28.1441 1633.08 54.4158C1593.5 78.2872 1555.72 101.068 1500.5 101.068C1408.75 101.068 1367.82 73.022 1329.19 46.5513C1293.71 22.2419 1260.18 -0.738894 1191 0.551661C1123.14 1.81765 1091.89 24.0615 1059.24 47.3013C1050.14 53.7785 1040.93 60.3332 1030.79 66.5325C1025.51 69.7251 1020 72.8475 1014.16 75.828C986.431 89.816 950.568 100.332 894.5 101.031Z" fill="#FFCFAC"/>
</svg>
